<svg width="317" height="46" viewBox="0 0 317 46" fill="none" xmlns="http://www.w3.org/2000/svg">
<path d="M20.2477 0.136166C14.9318 0.698395 10.1726 3.10192 6.37351 7.13592C2.63011 11.0996 0.681882 15.3585 0.13916 20.77C0.0556638 21.6414 0 26.3642 0 32.5487C0 41.7411 0.0278319 42.8656 0.208739 42.7953C0.974117 42.5001 3.15892 40.7994 4.68968 39.2954L5.67771 38.3115L7.05539 39.6046C8.86446 41.3194 10.5622 42.5282 12.5939 43.5543C16.1286 45.3394 18.9396 46 22.8917 46C29.2931 45.9859 34.4559 43.7933 39.0342 39.1267C40.9407 37.1871 42.1932 35.4301 43.3482 33.0828C45.5608 28.5568 46.1731 23.2859 45.0877 18.015C44.5171 15.232 43.209 12.2381 41.5113 9.82056C40.3145 8.11982 37.6009 5.39301 35.9032 4.15611C31.4361 0.951397 25.9254 -0.468231 20.2477 0.136166ZM25.16 11.7321C27.985 12.3225 30.4898 14.0373 32.2989 16.6095C34.4002 19.6315 34.8316 23.9325 33.3844 27.4605C32.0763 30.6371 29.0843 33.2936 25.7306 34.2213C24.339 34.6149 21.1522 34.5868 19.6911 34.1651C16.0033 33.0968 12.8723 29.9484 11.8286 26.2658C11.1745 23.9747 11.3276 20.9246 12.2043 18.7178C13.3593 15.8083 16.0451 13.1799 18.9814 12.1116C20.6513 11.5072 23.2953 11.3386 25.16 11.7321Z" fill="#4269F2"/>
<path d="M70.9966 38.3789H67.3711V18.8804H68.2412L69.6782 20.5811C70.0034 20.2734 70.3594 19.9834 70.7461 19.7109C71.1328 19.4385 71.5327 19.2056 71.9458 19.0122C72.3677 18.8101 72.8027 18.6519 73.251 18.5376C73.6992 18.4233 74.1519 18.3662 74.6089 18.3662C75.6021 18.3662 76.5337 18.5464 77.4038 18.9067C78.2827 19.2583 79.0474 19.7593 79.6978 20.4097C80.3569 21.0601 80.8755 21.8467 81.2534 22.7695C81.6313 23.6836 81.8203 24.6987 81.8203 25.8149C81.8203 26.9751 81.6313 28.021 81.2534 28.9526C80.8755 29.8755 80.3569 30.6621 79.6978 31.3125C79.0474 31.9541 78.2827 32.4463 77.4038 32.7891C76.5337 33.1318 75.6021 33.3032 74.6089 33.3032C74.2925 33.3032 73.9761 33.2681 73.6597 33.1978C73.3521 33.1274 73.0444 33.0352 72.7368 32.9209C72.438 32.7979 72.1392 32.6616 71.8403 32.5122C71.5503 32.3628 71.269 32.209 70.9966 32.0508V38.3789ZM78.208 25.8149C78.208 25.2173 78.1113 24.6812 77.918 24.2065C77.7334 23.7319 77.4785 23.332 77.1533 23.0068C76.8281 22.6729 76.4458 22.418 76.0063 22.2422C75.5669 22.0664 75.1011 21.9785 74.6089 21.9785C74.1167 21.9785 73.6509 22.0664 73.2114 22.2422C72.7808 22.418 72.4028 22.6729 72.0776 23.0068C71.7524 23.332 71.4932 23.7319 71.2998 24.2065C71.1152 24.6812 71.0229 25.2173 71.0229 25.8149C71.0229 26.3862 71.1152 26.9092 71.2998 27.3838C71.4932 27.8584 71.7524 28.2627 72.0776 28.5967C72.4028 28.9307 72.7808 29.1899 73.2114 29.3745C73.6509 29.5591 74.1167 29.6514 74.6089 29.6514C75.1011 29.6514 75.5669 29.5591 76.0063 29.3745C76.4458 29.1899 76.8281 28.9307 77.1533 28.5967C77.4785 28.2627 77.7334 27.8584 77.918 27.3838C78.1113 26.9092 78.208 26.3862 78.208 25.8149Z" fill="#4269F2"/>
<path d="M97.4956 33H96.6255L95.228 31.062C94.8853 31.3696 94.5205 31.6597 94.1338 31.9321C93.7559 32.1958 93.356 32.4287 92.9341 32.6309C92.5122 32.8242 92.0771 32.978 91.6289 33.0923C91.1895 33.2065 90.7412 33.2637 90.2842 33.2637C89.291 33.2637 88.355 33.0967 87.4761 32.7627C86.606 32.4287 85.8413 31.9453 85.1821 31.3125C84.5317 30.6709 84.0176 29.8887 83.6396 28.9658C83.2617 28.043 83.0728 26.9927 83.0728 25.8149C83.0728 24.7163 83.2617 23.71 83.6396 22.7959C84.0176 21.873 84.5317 21.082 85.1821 20.4229C85.8413 19.7637 86.606 19.2539 87.4761 18.8936C88.355 18.5244 89.291 18.3398 90.2842 18.3398C90.7412 18.3398 91.1938 18.397 91.6421 18.5112C92.0903 18.6255 92.5254 18.7837 92.9473 18.9858C93.3691 19.188 93.769 19.4253 94.147 19.6978C94.5337 19.9702 94.894 20.2646 95.228 20.5811L96.6255 18.9067H97.4956V33ZM93.8701 25.8149C93.8701 25.3228 93.7734 24.8481 93.5801 24.3911C93.3955 23.9253 93.1406 23.5166 92.8154 23.165C92.4902 22.8047 92.1079 22.519 91.6685 22.3081C91.2378 22.0884 90.7764 21.9785 90.2842 21.9785C89.792 21.9785 89.3262 22.062 88.8867 22.229C88.4561 22.396 88.0781 22.6421 87.7529 22.9673C87.4365 23.2925 87.186 23.6968 87.0015 24.1802C86.8169 24.6548 86.7246 25.1997 86.7246 25.8149C86.7246 26.4302 86.8169 26.9795 87.0015 27.4629C87.186 27.9375 87.4365 28.3374 87.7529 28.6626C88.0781 28.9878 88.4561 29.2339 88.8867 29.4009C89.3262 29.5679 89.792 29.6514 90.2842 29.6514C90.7764 29.6514 91.2378 29.5459 91.6685 29.335C92.1079 29.1152 92.4902 28.8296 92.8154 28.478C93.1406 28.1177 93.3955 27.709 93.5801 27.252C93.7734 26.7861 93.8701 26.3071 93.8701 25.8149Z" fill="#4269F2"/>
<path d="M103.652 38.3789V34.7534L105.656 34.7798C106.008 34.7798 106.346 34.7227 106.671 34.6084C106.997 34.4941 107.295 34.3359 107.568 34.1338C107.849 33.9316 108.095 33.6899 108.306 33.4087C108.517 33.1362 108.688 32.8374 108.82 32.5122C108.425 32.6792 108.021 32.8462 107.607 33.0132C107.203 33.1802 106.794 33.2637 106.381 33.2637C105.511 33.2637 104.694 33.1099 103.929 32.8022C103.165 32.4946 102.492 32.0596 101.912 31.4971C101.341 30.9258 100.888 30.2358 100.554 29.4272C100.229 28.6099 100.066 27.6958 100.066 26.6851V18.8804H103.652V26.6851C103.652 27.186 103.723 27.6255 103.863 28.0034C104.013 28.3726 104.21 28.6846 104.457 28.9395C104.703 29.1855 104.988 29.3701 105.313 29.4932C105.647 29.6162 106.003 29.6777 106.381 29.6777C106.75 29.6777 107.098 29.5942 107.423 29.4272C107.757 29.2515 108.047 29.0229 108.293 28.7417C108.539 28.4604 108.732 28.144 108.873 27.7925C109.014 27.4321 109.084 27.063 109.084 26.6851V18.8804H112.709V31.2202C112.701 32.2134 112.507 33.145 112.129 34.0151C111.751 34.8853 111.233 35.6455 110.574 36.2959C109.923 36.9463 109.163 37.4604 108.293 37.8384C107.423 38.2163 106.491 38.4053 105.498 38.4053L103.652 38.3789Z" fill="#4269F2"/>
<path d="M133.421 33H129.835V24.0352C129.835 23.7891 129.787 23.5562 129.69 23.3364C129.602 23.1167 129.475 22.9233 129.308 22.7563C129.141 22.5894 128.947 22.4619 128.728 22.374C128.508 22.2773 128.275 22.229 128.029 22.229C127.783 22.229 127.55 22.2773 127.33 22.374C127.119 22.4619 126.93 22.5894 126.763 22.7563C126.605 22.9233 126.478 23.1167 126.381 23.3364C126.293 23.5562 126.249 23.7891 126.249 24.0352V33H122.65V24.0352C122.65 23.7891 122.602 23.5562 122.505 23.3364C122.417 23.1167 122.29 22.9233 122.123 22.7563C121.956 22.5894 121.762 22.4619 121.542 22.374C121.323 22.2773 121.09 22.229 120.844 22.229C120.598 22.229 120.365 22.2773 120.145 22.374C119.934 22.4619 119.745 22.5894 119.578 22.7563C119.42 22.9233 119.292 23.1167 119.196 23.3364C119.108 23.5562 119.064 23.7891 119.064 24.0352V33H115.465V18.8804H116.335L117.311 19.9614C117.812 19.5396 118.361 19.2144 118.958 18.9858C119.565 18.7485 120.193 18.6299 120.844 18.6299C121.503 18.6299 122.145 18.7529 122.769 18.999C123.401 19.2451 123.955 19.6714 124.43 20.2778C124.649 19.979 124.9 19.7241 125.181 19.5132C125.462 19.3022 125.757 19.1309 126.064 18.999C126.381 18.8672 126.706 18.7749 127.04 18.7222C127.374 18.6606 127.704 18.6299 128.029 18.6299C128.776 18.6299 129.475 18.7705 130.125 19.0518C130.784 19.333 131.355 19.7197 131.839 20.2119C132.331 20.6953 132.718 21.2666 132.999 21.9258C133.28 22.585 133.421 23.2881 133.421 24.0352V33Z" fill="#4269F2"/>
<path d="M141.674 29.5459C141.814 29.5898 141.955 29.6206 142.096 29.6382C142.236 29.647 142.377 29.6514 142.518 29.6514C142.869 29.6514 143.208 29.603 143.533 29.5063C143.858 29.4097 144.161 29.2734 144.442 29.0977C144.732 28.9131 144.987 28.6934 145.207 28.4385C145.436 28.1748 145.62 27.8848 145.761 27.5684L148.397 30.2183C148.063 30.6929 147.677 31.1191 147.237 31.4971C146.807 31.875 146.336 32.1958 145.827 32.4595C145.326 32.7231 144.794 32.9209 144.231 33.0527C143.678 33.1934 143.106 33.2637 142.518 33.2637C141.524 33.2637 140.588 33.0791 139.709 32.71C138.839 32.3408 138.075 31.8267 137.416 31.1675C136.765 30.5083 136.251 29.7261 135.873 28.8208C135.495 27.9067 135.306 26.9048 135.306 25.8149C135.306 24.6987 135.495 23.6792 135.873 22.7563C136.251 21.8335 136.765 21.0469 137.416 20.3965C138.075 19.7461 138.839 19.2407 139.709 18.8804C140.588 18.52 141.524 18.3398 142.518 18.3398C143.106 18.3398 143.682 18.4102 144.245 18.5508C144.807 18.6914 145.339 18.8936 145.84 19.1572C146.35 19.4209 146.824 19.7461 147.264 20.1328C147.703 20.5107 148.09 20.937 148.424 21.4116L141.674 29.5459ZM143.52 22.1235C143.353 22.062 143.186 22.0225 143.019 22.0049C142.86 21.9873 142.693 21.9785 142.518 21.9785C142.025 21.9785 141.56 22.0708 141.12 22.2554C140.689 22.4312 140.312 22.686 139.986 23.02C139.67 23.354 139.419 23.7583 139.235 24.2329C139.05 24.6987 138.958 25.2261 138.958 25.8149C138.958 25.9468 138.962 26.0962 138.971 26.2632C138.989 26.4302 139.011 26.6016 139.037 26.7773C139.072 26.9443 139.112 27.1069 139.156 27.2651C139.2 27.4233 139.257 27.564 139.327 27.687L143.52 22.1235Z" fill="#4269F2"/>
<path d="M153.842 33H150.243V18.8804H151.113L152.3 20.2515C152.88 19.7241 153.535 19.3198 154.264 19.0386C155.002 18.7485 155.771 18.6035 156.571 18.6035C157.433 18.6035 158.246 18.7705 159.01 19.1045C159.775 19.4297 160.443 19.8823 161.014 20.4624C161.585 21.0337 162.034 21.7061 162.359 22.4795C162.693 23.2441 162.86 24.0615 162.86 24.9316V33H159.261V24.9316C159.261 24.5625 159.19 24.2153 159.05 23.8901C158.909 23.5562 158.716 23.2661 158.47 23.02C158.224 22.7739 157.938 22.5806 157.613 22.4399C157.288 22.2993 156.94 22.229 156.571 22.229C156.193 22.229 155.837 22.2993 155.503 22.4399C155.169 22.5806 154.879 22.7739 154.633 23.02C154.387 23.2661 154.194 23.5562 154.053 23.8901C153.913 24.2153 153.842 24.5625 153.842 24.9316V33Z" fill="#4269F2"/>
<path d="M172.326 33C171.456 33 170.638 32.8374 169.874 32.5122C169.109 32.1782 168.437 31.7256 167.856 31.1543C167.285 30.5742 166.833 29.9019 166.499 29.1372C166.173 28.3726 166.011 27.5552 166.011 26.6851V22.4927H164.257V18.9067H166.011V13.2642H169.597V18.9067H175.055V22.4927H169.597V26.6851C169.597 27.063 169.667 27.4189 169.808 27.7529C169.948 28.0781 170.142 28.3638 170.388 28.6099C170.634 28.856 170.924 29.0537 171.258 29.2031C171.592 29.3438 171.948 29.4141 172.326 29.4141H175.055V33H172.326Z" fill="#4269F2"/>
<path d="M202.608 33H199.022V24.0352C199.022 23.7891 198.974 23.5562 198.877 23.3364C198.79 23.1167 198.662 22.9233 198.495 22.7563C198.328 22.5894 198.135 22.4619 197.915 22.374C197.695 22.2773 197.462 22.229 197.216 22.229C196.97 22.229 196.737 22.2773 196.518 22.374C196.307 22.4619 196.118 22.5894 195.951 22.7563C195.792 22.9233 195.665 23.1167 195.568 23.3364C195.48 23.5562 195.437 23.7891 195.437 24.0352V33H191.837V24.0352C191.837 23.7891 191.789 23.5562 191.692 23.3364C191.604 23.1167 191.477 22.9233 191.31 22.7563C191.143 22.5894 190.95 22.4619 190.73 22.374C190.51 22.2773 190.277 22.229 190.031 22.229C189.785 22.229 189.552 22.2773 189.333 22.374C189.122 22.4619 188.933 22.5894 188.766 22.7563C188.607 22.9233 188.48 23.1167 188.383 23.3364C188.295 23.5562 188.251 23.7891 188.251 24.0352V33H184.652V18.8804H185.522L186.498 19.9614C186.999 19.5396 187.548 19.2144 188.146 18.9858C188.752 18.7485 189.381 18.6299 190.031 18.6299C190.69 18.6299 191.332 18.7529 191.956 18.999C192.589 19.2451 193.143 19.6714 193.617 20.2778C193.837 19.979 194.087 19.7241 194.369 19.5132C194.65 19.3022 194.944 19.1309 195.252 18.999C195.568 18.8672 195.894 18.7749 196.228 18.7222C196.562 18.6606 196.891 18.6299 197.216 18.6299C197.963 18.6299 198.662 18.7705 199.312 19.0518C199.972 19.333 200.543 19.7197 201.026 20.2119C201.519 20.6953 201.905 21.2666 202.187 21.9258C202.468 22.585 202.608 23.2881 202.608 24.0352V33Z" fill="#4269F2"/>
<path d="M218.89 25.8149C218.89 26.8696 218.701 27.854 218.323 28.7681C217.945 29.6733 217.431 30.46 216.781 31.1279C216.13 31.7871 215.366 32.3101 214.487 32.6968C213.617 33.0747 212.681 33.2637 211.679 33.2637C210.686 33.2637 209.75 33.0747 208.871 32.6968C208 32.3101 207.236 31.7871 206.577 31.1279C205.926 30.46 205.412 29.6733 205.034 28.7681C204.656 27.854 204.467 26.8696 204.467 25.8149C204.467 24.7427 204.656 23.7495 205.034 22.8354C205.412 21.9214 205.926 21.1348 206.577 20.4756C207.236 19.8076 208 19.2847 208.871 18.9067C209.75 18.5288 210.686 18.3398 211.679 18.3398C212.681 18.3398 213.617 18.52 214.487 18.8804C215.366 19.2319 216.13 19.7373 216.781 20.3965C217.431 21.0469 217.945 21.8335 218.323 22.7563C218.701 23.6704 218.89 24.6899 218.89 25.8149ZM215.265 25.8149C215.265 25.2349 215.168 24.7119 214.975 24.2461C214.79 23.7715 214.535 23.3672 214.21 23.0332C213.885 22.6904 213.502 22.4312 213.063 22.2554C212.632 22.0708 212.171 21.9785 211.679 21.9785C211.187 21.9785 210.721 22.0708 210.281 22.2554C209.851 22.4312 209.473 22.6904 209.147 23.0332C208.831 23.3672 208.581 23.7715 208.396 24.2461C208.211 24.7119 208.119 25.2349 208.119 25.8149C208.119 26.3599 208.211 26.8652 208.396 27.3311C208.581 27.7969 208.831 28.2012 209.147 28.5439C209.473 28.8867 209.851 29.1592 210.281 29.3613C210.721 29.5547 211.187 29.6514 211.679 29.6514C212.171 29.6514 212.632 29.5591 213.063 29.3745C213.502 29.1899 213.885 28.9307 214.21 28.5967C214.535 28.2627 214.79 27.8584 214.975 27.3838C215.168 26.9092 215.265 26.3862 215.265 25.8149Z" fill="#4269F2"/>
<path d="M224.48 33H220.881V18.8804H221.751L222.938 20.2515C223.518 19.7241 224.172 19.3198 224.902 19.0386C225.64 18.7485 226.409 18.6035 227.209 18.6035C228.07 18.6035 228.883 18.7705 229.648 19.1045C230.413 19.4297 231.081 19.8823 231.652 20.4624C232.223 21.0337 232.671 21.7061 232.997 22.4795C233.331 23.2441 233.498 24.0615 233.498 24.9316V33H229.898V24.9316C229.898 24.5625 229.828 24.2153 229.688 23.8901C229.547 23.5562 229.354 23.2661 229.107 23.02C228.861 22.7739 228.576 22.5806 228.25 22.4399C227.925 22.2993 227.578 22.229 227.209 22.229C226.831 22.229 226.475 22.2993 226.141 22.4399C225.807 22.5806 225.517 22.7739 225.271 23.02C225.025 23.2661 224.832 23.5562 224.691 23.8901C224.55 24.2153 224.48 24.5625 224.48 24.9316V33Z" fill="#4269F2"/>
<path d="M240.313 15.0439C240.313 15.3779 240.248 15.6899 240.116 15.98C239.993 16.27 239.821 16.5249 239.602 16.7446C239.382 16.9556 239.123 17.127 238.824 17.2588C238.534 17.3818 238.222 17.4434 237.888 17.4434C237.554 17.4434 237.237 17.3818 236.938 17.2588C236.648 17.127 236.394 16.9556 236.174 16.7446C235.963 16.5249 235.792 16.27 235.66 15.98C235.537 15.6899 235.475 15.3779 235.475 15.0439C235.475 14.7188 235.537 14.4111 235.66 14.1211C235.792 13.8223 235.963 13.5674 236.174 13.3564C236.394 13.1367 236.648 12.9653 236.938 12.8423C237.237 12.7104 237.554 12.6445 237.888 12.6445C238.222 12.6445 238.534 12.7104 238.824 12.8423C239.123 12.9653 239.382 13.1367 239.602 13.3564C239.821 13.5674 239.993 13.8223 240.116 14.1211C240.248 14.4111 240.313 14.7188 240.313 15.0439ZM239.694 33H236.068V18.8804H239.694V33Z" fill="#4269F2"/>
<path d="M249.529 33C248.659 33 247.841 32.8374 247.077 32.5122C246.312 32.1782 245.64 31.7256 245.06 31.1543C244.488 30.5742 244.036 29.9019 243.702 29.1372C243.376 28.3726 243.214 27.5552 243.214 26.6851V22.4927H241.46V18.9067H243.214V13.2642H246.8V18.9067H252.258V22.4927H246.8V26.6851C246.8 27.063 246.87 27.4189 247.011 27.7529C247.151 28.0781 247.345 28.3638 247.591 28.6099C247.837 28.856 248.127 29.0537 248.461 29.2031C248.795 29.3438 249.151 29.4141 249.529 29.4141H252.258V33H249.529Z" fill="#4269F2"/>
<path d="M267.933 25.8149C267.933 26.8696 267.744 27.854 267.366 28.7681C266.988 29.6733 266.474 30.46 265.824 31.1279C265.173 31.7871 264.409 32.3101 263.53 32.6968C262.66 33.0747 261.724 33.2637 260.722 33.2637C259.729 33.2637 258.792 33.0747 257.914 32.6968C257.043 32.3101 256.279 31.7871 255.62 31.1279C254.969 30.46 254.455 29.6733 254.077 28.7681C253.699 27.854 253.51 26.8696 253.51 25.8149C253.51 24.7427 253.699 23.7495 254.077 22.8354C254.455 21.9214 254.969 21.1348 255.62 20.4756C256.279 19.8076 257.043 19.2847 257.914 18.9067C258.792 18.5288 259.729 18.3398 260.722 18.3398C261.724 18.3398 262.66 18.52 263.53 18.8804C264.409 19.2319 265.173 19.7373 265.824 20.3965C266.474 21.0469 266.988 21.8335 267.366 22.7563C267.744 23.6704 267.933 24.6899 267.933 25.8149ZM264.308 25.8149C264.308 25.2349 264.211 24.7119 264.018 24.2461C263.833 23.7715 263.578 23.3672 263.253 23.0332C262.928 22.6904 262.545 22.4312 262.106 22.2554C261.675 22.0708 261.214 21.9785 260.722 21.9785C260.229 21.9785 259.764 22.0708 259.324 22.2554C258.894 22.4312 258.516 22.6904 258.19 23.0332C257.874 23.3672 257.624 23.7715 257.439 24.2461C257.254 24.7119 257.162 25.2349 257.162 25.8149C257.162 26.3599 257.254 26.8652 257.439 27.3311C257.624 27.7969 257.874 28.2012 258.19 28.5439C258.516 28.8867 258.894 29.1592 259.324 29.3613C259.764 29.5547 260.229 29.6514 260.722 29.6514C261.214 29.6514 261.675 29.5591 262.106 29.3745C262.545 29.1899 262.928 28.9307 263.253 28.5967C263.578 28.2627 263.833 27.8584 264.018 27.3838C264.211 26.9092 264.308 26.3862 264.308 25.8149Z" fill="#4269F2"/>
<path d="M273.523 33H269.924V18.8804H270.794L271.98 20.5547C272.561 20.0273 273.22 19.623 273.958 19.3418C274.696 19.0518 275.461 18.9067 276.252 18.9067H279.429V22.4927H276.252C275.874 22.4927 275.518 22.563 275.184 22.7036C274.85 22.8442 274.56 23.0376 274.314 23.2837C274.068 23.5298 273.875 23.8198 273.734 24.1538C273.593 24.4878 273.523 24.8438 273.523 25.2217V33Z" fill="#4269F2"/>
<path d="M285.349 15.0439C285.349 15.3779 285.283 15.6899 285.151 15.98C285.028 16.27 284.856 16.5249 284.637 16.7446C284.417 16.9556 284.158 17.127 283.859 17.2588C283.569 17.3818 283.257 17.4434 282.923 17.4434C282.589 17.4434 282.272 17.3818 281.974 17.2588C281.684 17.127 281.429 16.9556 281.209 16.7446C280.998 16.5249 280.827 16.27 280.695 15.98C280.572 15.6899 280.51 15.3779 280.51 15.0439C280.51 14.7188 280.572 14.4111 280.695 14.1211C280.827 13.8223 280.998 13.5674 281.209 13.3564C281.429 13.1367 281.684 12.9653 281.974 12.8423C282.272 12.7104 282.589 12.6445 282.923 12.6445C283.257 12.6445 283.569 12.7104 283.859 12.8423C284.158 12.9653 284.417 13.1367 284.637 13.3564C284.856 13.5674 285.028 13.8223 285.151 14.1211C285.283 14.4111 285.349 14.7188 285.349 15.0439ZM284.729 33H281.104V18.8804H284.729V33Z" fill="#4269F2"/>
<path d="M291.083 33H287.484V18.8804H288.354L289.541 20.2515C290.121 19.7241 290.776 19.3198 291.505 19.0386C292.244 18.7485 293.013 18.6035 293.812 18.6035C294.674 18.6035 295.487 18.7705 296.251 19.1045C297.016 19.4297 297.684 19.8823 298.255 20.4624C298.827 21.0337 299.275 21.7061 299.6 22.4795C299.934 23.2441 300.101 24.0615 300.101 24.9316V33H296.502V24.9316C296.502 24.5625 296.432 24.2153 296.291 23.8901C296.15 23.5562 295.957 23.2661 295.711 23.02C295.465 22.7739 295.179 22.5806 294.854 22.4399C294.529 22.2993 294.182 22.229 293.812 22.229C293.435 22.229 293.079 22.2993 292.745 22.4399C292.411 22.5806 292.121 22.7739 291.875 23.02C291.628 23.2661 291.435 23.5562 291.294 23.8901C291.154 24.2153 291.083 24.5625 291.083 24.9316V33Z" fill="#4269F2"/>
<path d="M312.718 25.8149C312.718 25.3228 312.621 24.8481 312.428 24.3911C312.243 23.9253 311.988 23.5166 311.663 23.165C311.338 22.8047 310.956 22.519 310.516 22.3081C310.085 22.0884 309.624 21.9785 309.132 21.9785C308.64 21.9785 308.174 22.062 307.734 22.229C307.304 22.396 306.926 22.6421 306.601 22.9673C306.284 23.2925 306.034 23.6968 305.849 24.1802C305.665 24.6548 305.572 25.1997 305.572 25.8149C305.572 26.4038 305.665 26.9355 305.849 27.4102C306.034 27.876 306.284 28.2759 306.601 28.6099C306.926 28.9438 307.304 29.2031 307.734 29.3877C308.174 29.5635 308.64 29.6514 309.132 29.6514C309.624 29.6514 310.085 29.5459 310.516 29.335C310.956 29.1152 311.338 28.8296 311.663 28.478C311.988 28.1177 312.243 27.709 312.428 27.252C312.621 26.7861 312.718 26.3071 312.718 25.8149ZM316.343 31.2202C316.343 32.2134 316.154 33.145 315.776 34.0151C315.398 34.8853 314.88 35.6455 314.221 36.2959C313.57 36.9463 312.806 37.4604 311.927 37.8384C311.057 38.2163 310.125 38.4053 309.132 38.4053L307.326 38.3789V34.7798L309.105 34.8062C309.668 34.8062 310.147 34.7314 310.542 34.582C310.938 34.4414 311.272 34.2437 311.544 33.9888C311.817 33.7427 312.032 33.457 312.19 33.1318C312.357 32.8066 312.489 32.4639 312.586 32.1035C312.445 32.332 312.243 32.521 311.979 32.6704C311.716 32.811 311.421 32.9253 311.096 33.0132C310.78 33.1099 310.446 33.1758 310.094 33.2109C309.751 33.2461 309.431 33.2637 309.132 33.2637C308.139 33.2637 307.203 33.0923 306.324 32.7495C305.454 32.4067 304.689 31.9189 304.03 31.2861C303.379 30.6445 302.865 29.8623 302.487 28.9395C302.109 28.0166 301.92 26.9751 301.92 25.8149C301.92 24.7515 302.109 23.7627 302.487 22.8486C302.865 21.9346 303.379 21.1436 304.03 20.4756C304.689 19.8076 305.454 19.2847 306.324 18.9067C307.203 18.5288 308.139 18.3398 309.132 18.3398C309.589 18.3398 310.042 18.397 310.49 18.5112C310.938 18.6255 311.373 18.7837 311.795 18.9858C312.217 19.188 312.617 19.4253 312.995 19.6978C313.381 19.9702 313.742 20.2646 314.076 20.5811L315.473 18.9067H316.343V31.2202Z" fill="#4269F2"/>
</svg>
